<svg width="24" height="24" viewBox="0 0 24 24" fill="none" xmlns="http://www.w3.org/2000/svg">
<path fill-rule="evenodd" clip-rule="evenodd" d="M12 0C5.37273 0 0 5.37273 0 12C0 18.6273 5.37273 24 12 24C18.6273 24 24 18.6273 24 12C24 5.37273 18.6273 0 12 0ZM11.4545 5.45455C11.1652 5.45455 10.8877 5.56948 10.6832 5.77407C10.4786 5.97865 10.3636 6.25613 10.3636 6.54545C10.3636 6.83478 10.4786 7.11226 10.6832 7.31684C10.8877 7.52143 11.1652 7.63636 11.4545 7.63636H12C12.2893 7.63636 12.5668 7.52143 12.7714 7.31684C12.976 7.11226 13.0909 6.83478 13.0909 6.54545C13.0909 6.25613 12.976 5.97865 12.7714 5.77407C12.5668 5.56948 12.2893 5.45455 12 5.45455H11.4545ZM9.81818 9.81818C9.52886 9.81818 9.25138 9.93312 9.04679 10.1377C8.84221 10.3423 8.72727 10.6198 8.72727 10.9091C8.72727 11.1984 8.84221 11.4759 9.04679 11.6805C9.25138 11.8851 9.52886 12 9.81818 12H10.9091V15.2727H9.81818C9.52886 15.2727 9.25138 15.3877 9.04679 15.5922C8.84221 15.7968 8.72727 16.0743 8.72727 16.3636C8.72727 16.653 8.84221 16.9304 9.04679 17.135C9.25138 17.3396 9.52886 17.4545 9.81818 17.4545H14.1818C14.4711 17.4545 14.7486 17.3396 14.9532 17.135C15.1578 16.9304 15.2727 16.653 15.2727 16.3636C15.2727 16.0743 15.1578 15.7968 14.9532 15.5922C14.7486 15.3877 14.4711 15.2727 14.1818 15.2727H13.0909V10.9091C13.0909 10.6198 12.976 10.3423 12.7714 10.1377C12.5668 9.93312 12.2893 9.81818 12 9.81818H9.81818Z" fill="white"/>
</svg>
